<svg width="13" height="13" viewBox="0 0 13 13" fill="none" xmlns="http://www.w3.org/2000/svg">
<g clip-path="url(#clip0_252_698)">
<path d="M2.00774 7.02966C1.91272 7.02998 1.81956 7.00334 1.73908 6.95282C1.6586 6.90231 1.59411 6.82999 1.55309 6.74428C1.51208 6.65857 1.49623 6.56298 1.50738 6.46862C1.51853 6.37426 1.55622 6.285 1.61608 6.21121L6.58706 1.0896C6.62435 1.04656 6.67516 1.01747 6.73116 1.00712C6.78715 0.99676 6.84501 1.00575 6.89522 1.03261C6.94544 1.05947 6.98503 1.1026 7.0075 1.15493C7.02997 1.20725 7.03398 1.26566 7.01888 1.32057L6.05481 4.34332C6.02638 4.41941 6.01684 4.50125 6.02699 4.58183C6.03714 4.66242 6.06669 4.73934 6.1131 4.80599C6.15951 4.87264 6.2214 4.92704 6.29346 4.96453C6.36551 5.00201 6.44558 5.02145 6.5268 5.02118H10.0416C10.1366 5.02086 10.2298 5.0475 10.3103 5.09802C10.3908 5.14854 10.4553 5.22085 10.4963 5.30656C10.5373 5.39227 10.5531 5.48786 10.542 5.58222C10.5308 5.67659 10.4931 5.76585 10.4333 5.83964L5.46231 10.9612C5.42502 11.0043 5.37421 11.0334 5.31821 11.0437C5.26222 11.0541 5.20436 11.0451 5.15415 11.0182C5.10393 10.9914 5.06434 10.9482 5.04187 10.8959C5.0194 10.8436 5.01539 10.7852 5.03049 10.7303L5.99456 7.70752C6.02298 7.63144 6.03253 7.54959 6.02238 7.46901C6.01223 7.38843 5.98268 7.31151 5.93627 7.24485C5.88986 7.1782 5.82797 7.1238 5.75591 7.08632C5.68386 7.04884 5.60379 7.02939 5.52257 7.02966H2.00774Z" stroke="#00C942" stroke-width="1.00424" stroke-linecap="round" stroke-linejoin="round"/>
</g>
<defs>
<clipPath id="clip0_252_698">
<rect width="12.0508" height="12.0508" fill="white"/>
</clipPath>
</defs>
</svg>
