<svg width="176" height="286" viewBox="0 0 176 286" fill="none" xmlns="http://www.w3.org/2000/svg">
<mask id="path-1-inside-1_237_3861" fill="white">
<path d="M0 6.4375C0 2.88217 2.88217 0 6.4375 0H168.562C172.118 0 175 2.88217 175 6.4375V279.563C175 283.118 172.118 286 168.562 286H6.4375C2.88217 286 0 283.118 0 279.563V6.4375Z"/>
</mask>
<path d="M0 6.4375C0 2.88217 2.88217 0 6.4375 0H168.562C172.118 0 175 2.88217 175 6.4375V279.563C175 283.118 172.118 286 168.562 286H6.4375C2.88217 286 0 283.118 0 279.563V6.4375Z" fill="#111111"/>
<path d="M6.4375 0V0.804688H168.562V0V-0.804688H6.4375V0ZM175 6.4375H174.195V279.563H175H175.805V6.4375H175ZM168.562 286V285.195H6.4375V286V286.805H168.562V286ZM0 279.563H0.804688V6.4375H0H-0.804688V279.563H0ZM6.4375 286V285.195C3.32658 285.195 0.804688 282.673 0.804688 279.563H0H-0.804688C-0.804688 283.562 2.43775 286.805 6.4375 286.805V286ZM175 279.563H174.195C174.195 282.673 171.673 285.195 168.562 285.195V286V286.805C172.562 286.805 175.805 283.562 175.805 279.563H175ZM168.562 0V0.804688C171.673 0.804688 174.195 3.32658 174.195 6.4375H175H175.805C175.805 2.43775 172.562 -0.804688 168.562 -0.804688V0ZM6.4375 0V-0.804688C2.43775 -0.804688 -0.804688 2.43775 -0.804688 6.4375H0H0.804688C0.804688 3.32658 3.32658 0.804688 6.4375 0.804688V0Z" fill="white" fill-opacity="0.05" mask="url(#path-1-inside-1_237_3861)"/>
<mask id="path-3-inside-2_237_3861" fill="white">
<path d="M0.25 188H64.625V252.375H0.25V188Z"/>
</mask>
<path d="M0.25 252.375H-1.35938V253.984H0.25V252.375ZM64.625 252.375V250.766H0.25V252.375V253.984H64.625V252.375ZM0.25 252.375H1.85938V188H0.25H-1.35938V252.375H0.25Z" fill="#00C942" fill-opacity="0.2" mask="url(#path-3-inside-2_237_3861)"/>
<mask id="path-5-inside-3_237_3861" fill="white">
<path d="M111.25 32V96.375H175.625V32L111.25 32Z"/>
</mask>
<path d="M175.625 32V30.3906H177.234V32H175.625ZM175.625 96.375H174.016V32H175.625H177.234V96.375H175.625ZM175.625 32V33.6094H111.25V32V30.3906L175.625 30.3906V32Z" fill="#00C942" fill-opacity="0.2" mask="url(#path-5-inside-3_237_3861)"/>
</svg>
