<svg width="362" height="388" viewBox="0 0 362 388" fill="none" xmlns="http://www.w3.org/2000/svg">
<mask id="path-1-inside-1_237_3861" fill="white">
<path d="M0 6.43749C0 2.88216 2.88217 0 6.4375 0H354.563C358.118 0 361 2.88217 361 6.4375V380.563C361 384.118 358.118 387 354.563 387H6.4375C2.88216 387 0 384.118 0 380.562V6.43749Z"/>
</mask>
<path d="M0 6.43749C0 2.88216 2.88217 0 6.4375 0H354.563C358.118 0 361 2.88217 361 6.4375V380.563C361 384.118 358.118 387 354.563 387H6.4375C2.88216 387 0 384.118 0 380.562V6.43749Z" fill="#111111"/>
<path d="M6.4375 0V0.804688H354.563V0V-0.804688H6.4375V0ZM361 6.4375H360.195V380.563H361H361.805V6.4375H361ZM354.563 387V386.195H6.4375V387V387.805H354.563V387ZM0 380.562H0.804688V6.43749H0H-0.804688V380.562H0ZM6.4375 387V386.195C3.32658 386.195 0.804688 383.673 0.804688 380.562H0H-0.804688C-0.804688 384.562 2.43775 387.805 6.4375 387.805V387ZM361 380.563H360.195C360.195 383.673 357.673 386.195 354.563 386.195V387V387.805C358.562 387.805 361.805 384.562 361.805 380.563H361ZM354.563 0V0.804688C357.673 0.804688 360.195 3.32658 360.195 6.4375H361H361.805C361.805 2.43775 358.562 -0.804688 354.563 -0.804688V0ZM6.4375 0V-0.804688C2.43775 -0.804688 -0.804688 2.43774 -0.804688 6.43749H0H0.804688C0.804688 3.32658 3.32658 0.804688 6.4375 0.804688V0Z" fill="white" fill-opacity="0.05" mask="url(#path-1-inside-1_237_3861)"/>
<mask id="path-3-inside-2_237_3861" fill="white">
<path d="M0.25 323H64.625V387.375H0.25V323Z"/>
</mask>
<path d="M0.25 387.375H-1.35938V388.984H0.25V387.375ZM64.625 387.375V385.766H0.25V387.375V388.984H64.625V387.375ZM0.25 387.375H1.85938V323H0.25H-1.35938V387.375H0.25Z" fill="#00C942" fill-opacity="0.2" mask="url(#path-3-inside-2_237_3861)"/>
<mask id="path-5-inside-3_237_3861" fill="white">
<path d="M297 1V65.375H361.375V1L297 1Z"/>
</mask>
<path d="M361.375 1V-0.609375H362.984V1L361.375 1ZM361.375 65.375H359.766V1L361.375 1L362.984 1V65.375H361.375ZM361.375 1V2.60937L297 2.60938V1V-0.609375L361.375 -0.609375V1Z" fill="#00C942" fill-opacity="0.2" mask="url(#path-5-inside-3_237_3861)"/>
</svg>
