<svg width="113" height="58" viewBox="0 0 113 58" fill="none" xmlns="http://www.w3.org/2000/svg">
<path d="M1.2 12.296H16.224C16.736 12.296 17.152 12.472 17.472 12.824C17.792 13.176 17.952 13.64 17.952 14.216V47H12.912C11.824 47 11.104 46.824 10.752 46.472C10.432 46.12 10.272 45.384 10.272 44.264V18.296H2.592C1.664 18.296 1.2 17.528 1.2 15.992V12.296ZM19.872 12.296H27.552C28.48 12.296 28.944 13.064 28.944 14.6V18.296H19.872V12.296Z" fill="#22D521"/>
<path d="M40.6 21.648H48.112C48.368 21.648 48.576 21.736 48.736 21.912C48.896 22.088 48.976 22.32 48.976 22.608V39H46.456C45.912 39 45.552 38.912 45.376 38.736C45.216 38.56 45.136 38.192 45.136 37.632V24.648H41.296C40.832 24.648 40.6 24.264 40.6 23.496V21.648ZM49.936 21.648H53.776C54.24 21.648 54.472 22.032 54.472 22.8V24.648H49.936V21.648ZM62.8319 23.928H60.5999C60.3439 23.928 60.2159 23.992 60.2159 24.12V39H57.6959C57.1519 39 56.7919 38.912 56.6159 38.736C56.4559 38.56 56.3759 38.192 56.3759 37.632V23.016C56.3759 22.456 56.4559 22.088 56.6159 21.912C56.7919 21.736 57.1519 21.648 57.6959 21.648H62.8319V23.928ZM63.7919 21.648H66.3119C66.8559 21.648 67.2079 21.736 67.3679 21.912C67.5439 22.088 67.6319 22.456 67.6319 23.016V37.608C67.6319 38.168 67.5439 38.544 67.3679 38.736C67.1919 38.912 66.8399 39 66.3119 39H63.7919V30.96H61.1759V28.68H63.7919V21.648ZM74.2398 21.648V28.488C74.2398 28.744 74.2798 28.928 74.3598 29.04C74.4398 29.136 74.6238 29.184 74.9118 29.184H75.7758V31.464H72.0318C71.4238 31.464 70.9998 31.328 70.7598 31.056C70.5198 30.768 70.3998 30.328 70.3998 29.736V22.776C70.3998 22.024 70.8398 21.648 71.7198 21.648H74.2398ZM78.1518 39H75.1518C74.6078 39 74.2478 38.912 74.0718 38.736C73.9118 38.56 73.8318 38.192 73.8318 37.632V33.792C73.8318 33.232 73.9118 32.864 74.0718 32.688C74.2478 32.512 74.6078 32.424 75.1518 32.424H78.1518V39ZM77.9598 21.648H80.4798C80.9598 21.648 81.2958 21.744 81.4878 21.936C81.6958 22.128 81.7998 22.488 81.7998 23.016V29.784C81.7998 30.904 81.3358 31.464 80.4078 31.464H76.7358V29.184H77.3118C77.5998 29.184 77.7758 29.128 77.8398 29.016C77.9198 28.904 77.9598 28.728 77.9598 28.488V21.648ZM85.8443 21.648C86.3883 21.648 86.7563 21.736 86.9483 21.912C87.1563 22.088 87.3003 22.456 87.3803 23.016L88.9643 35.784C89.0123 36.168 89.1163 36.416 89.2763 36.528C89.4363 36.64 89.6923 36.704 90.0443 36.72L90.0203 39H88.9643C87.5563 39 86.6283 38.656 86.1803 37.968C85.9403 37.6 85.7723 37.24 85.6763 36.888C85.5803 36.52 85.4923 36.008 85.4123 35.352L83.5403 21.648H85.8443ZM92.1083 39H90.6203L93.2363 23.016C93.3003 22.472 93.4363 22.112 93.6443 21.936C93.8523 21.744 94.2283 21.648 94.7723 21.648H97.0523L94.6523 35.832C94.5403 36.44 94.4443 36.888 94.3643 37.176C94.3003 37.464 94.1803 37.776 94.0043 38.112C93.8283 38.448 93.5883 38.68 93.2843 38.808C92.9803 38.936 92.5883 39 92.1083 39ZM103.348 21.648V36.024C103.348 36.264 103.404 36.44 103.516 36.552C103.644 36.664 103.916 36.72 104.332 36.72H106.108V39H103.06C102.42 39 101.884 38.952 101.452 38.856C101.036 38.76 100.668 38.568 100.348 38.28C100.044 37.976 99.8036 37.64 99.6276 37.272C99.4676 36.904 99.3396 36.352 99.2436 35.616C99.0996 34.512 99.0276 33.032 99.0276 31.176C99.0276 29.304 99.0356 27.984 99.0516 27.216C99.0836 26.448 99.1476 25.704 99.2436 24.984C99.3396 24.248 99.4676 23.704 99.6276 23.352C99.8036 22.984 100.044 22.656 100.348 22.368C100.668 22.064 101.036 21.872 101.452 21.792C101.884 21.696 102.42 21.648 103.06 21.648H103.348ZM104.308 21.672H107.356C107.996 21.672 108.524 21.72 108.94 21.816C109.372 21.912 109.74 22.112 110.044 22.416C110.364 22.704 110.604 23.032 110.764 23.4C110.94 23.768 111.076 24.32 111.172 25.056C111.316 26.16 111.388 27.648 111.388 29.52C111.388 31.376 111.372 32.688 111.34 33.456C111.324 34.224 111.268 34.976 111.172 35.712C111.076 36.432 110.94 36.976 110.764 37.344C110.604 37.696 110.364 38.024 110.044 38.328C109.74 38.616 109.372 38.808 108.94 38.904C108.524 38.984 107.996 39.024 107.356 39.024H107.068V24.648C107.068 24.408 107.004 24.232 106.876 24.12C106.764 24.008 106.5 23.952 106.084 23.952H104.308V21.672Z" fill="#22D521"/>
</svg>
