<svg width="52" height="52" viewBox="0 0 52 52" fill="none" xmlns="http://www.w3.org/2000/svg">
<mask id="path-1-inside-1_237_3897" fill="white">
<path d="M0 25.75C0 11.5287 11.5287 0 25.75 0C39.9713 0 51.5 11.5287 51.5 25.75C51.5 39.9713 39.9713 51.5 25.75 51.5C11.5287 51.5 0 39.9713 0 25.75Z"/>
</mask>
<path d="M0 25.75C0 11.5287 11.5287 0 25.75 0C39.9713 0 51.5 11.5287 51.5 25.75C51.5 39.9713 39.9713 51.5 25.75 51.5C11.5287 51.5 0 39.9713 0 25.75Z" fill="#00C942" fill-opacity="0.1"/>
<path d="M25.75 51.5V49.8906C12.4175 49.8906 1.60938 39.0825 1.60938 25.75H0H-1.60938C-1.60938 40.8602 10.6398 53.1094 25.75 53.1094V51.5ZM51.5 25.75H49.8906C49.8906 39.0825 39.0825 49.8906 25.75 49.8906V51.5V53.1094C40.8602 53.1094 53.1094 40.8602 53.1094 25.75H51.5ZM25.75 0V1.60938C39.0825 1.60938 49.8906 12.4175 49.8906 25.75H51.5H53.1094C53.1094 10.6398 40.8602 -1.60938 25.75 -1.60938V0ZM25.75 0V-1.60938C10.6398 -1.60938 -1.60938 10.6398 -1.60938 25.75H0H1.60938C1.60938 12.4175 12.4175 1.60938 25.75 1.60938V0Z" fill="#00C942" fill-opacity="0.3" mask="url(#path-1-inside-1_237_3897)"/>
<path d="M17.1664 27.8959C16.9634 27.8966 16.7643 27.8396 16.5924 27.7317C16.4204 27.6237 16.2826 27.4692 16.1949 27.2861C16.1073 27.1029 16.0734 26.8987 16.0973 26.697C16.1211 26.4954 16.2016 26.3047 16.3295 26.147L26.9514 15.2033C27.0311 15.1113 27.1397 15.0491 27.2593 15.027C27.379 15.0049 27.5026 15.0241 27.6099 15.0815C27.7172 15.1389 27.8018 15.231 27.8498 15.3429C27.8978 15.4547 27.9064 15.5795 27.8741 15.6968L25.8141 22.1558C25.7534 22.3183 25.733 22.4932 25.7547 22.6654C25.7764 22.8376 25.8395 23.0019 25.9387 23.1444C26.0379 23.2868 26.1701 23.403 26.3241 23.4831C26.478 23.5632 26.6491 23.6048 26.8227 23.6042H34.3331C34.5361 23.6035 34.7352 23.6604 34.9071 23.7684C35.0791 23.8763 35.2169 24.0308 35.3046 24.214C35.3922 24.3971 35.4261 24.6014 35.4022 24.803C35.3784 25.0046 35.2979 25.1954 35.17 25.353L24.5481 36.2968C24.4684 36.3888 24.3598 36.4509 24.2402 36.473C24.1205 36.4952 23.9969 36.476 23.8896 36.4186C23.7823 36.3612 23.6977 36.269 23.6497 36.1572C23.6017 36.0454 23.5931 35.9206 23.6254 35.8033L25.6854 29.3443C25.7461 29.1817 25.7665 29.0068 25.7448 28.8347C25.7231 28.6625 25.66 28.4981 25.5608 28.3557C25.4617 28.2133 25.3294 28.097 25.1754 28.0169C25.0215 27.9368 24.8504 27.8953 24.6768 27.8959H17.1664Z" stroke="#00C942" stroke-width="2.14583" stroke-linecap="round" stroke-linejoin="round"/>
</svg>
