<svg width="52" height="52" viewBox="0 0 52 52" fill="none" xmlns="http://www.w3.org/2000/svg">
<mask id="path-1-inside-1_237_3927" fill="white">
<path d="M0 25.75C0 11.5287 11.5287 0 25.75 0C39.9713 0 51.5 11.5287 51.5 25.75C51.5 39.9713 39.9713 51.5 25.75 51.5C11.5287 51.5 0 39.9713 0 25.75Z"/>
</mask>
<path d="M0 25.75C0 11.5287 11.5287 0 25.75 0C39.9713 0 51.5 11.5287 51.5 25.75C51.5 39.9713 39.9713 51.5 25.75 51.5C11.5287 51.5 0 39.9713 0 25.75Z" fill="#00C942" fill-opacity="0.1"/>
<path d="M25.75 51.5V49.8906C12.4175 49.8906 1.60938 39.0825 1.60938 25.75H0H-1.60938C-1.60938 40.8602 10.6398 53.1094 25.75 53.1094V51.5ZM51.5 25.75H49.8906C49.8906 39.0825 39.0825 49.8906 25.75 49.8906V51.5V53.1094C40.8602 53.1094 53.1094 40.8602 53.1094 25.75H51.5ZM25.75 0V1.60938C39.0825 1.60938 49.8906 12.4175 49.8906 25.75H51.5H53.1094C53.1094 10.6398 40.8602 -1.60938 25.75 -1.60938V0ZM25.75 0V-1.60938C10.6398 -1.60938 -1.60938 10.6398 -1.60938 25.75H0H1.60938C1.60938 12.4175 12.4175 1.60938 25.75 1.60938V0Z" fill="#00C942" fill-opacity="0.3" mask="url(#path-1-inside-1_237_3927)"/>
<path d="M34.3327 26.8231C34.3327 32.1877 30.5775 34.87 26.1141 36.4257C25.8804 36.5049 25.6265 36.5011 25.3953 36.415C20.9212 34.87 17.166 32.1877 17.166 26.8231V19.3127C17.166 19.0281 17.2791 18.7552 17.4803 18.554C17.6815 18.3528 17.9544 18.2397 18.2389 18.2397C20.3848 18.2397 23.0671 16.9522 24.9339 15.3214C25.1612 15.1272 25.4504 15.0205 25.7493 15.0205C26.0483 15.0205 26.3375 15.1272 26.5648 15.3214C28.4424 16.963 31.1139 18.2397 33.2598 18.2397C33.5443 18.2397 33.8172 18.3528 34.0184 18.554C34.2196 18.7552 34.3327 19.0281 34.3327 19.3127V26.8231Z" stroke="#00C942" stroke-width="2.14583" stroke-linecap="round" stroke-linejoin="round"/>
</svg>
