<svg width="1085" height="260" viewBox="0 0 1085 260" fill="none" xmlns="http://www.w3.org/2000/svg">
<g filter="url(#filter0_f_189_3609)">
<path d="M38 42H207.5V91.25H151.75V217H93.75V91.25H38V42ZM353.129 42L414.629 217H354.629L345.879 192H278.129L269.129 217H209.379L270.629 42H353.129ZM292.879 149.5H330.879L311.879 95.5L292.879 149.5ZM558.549 42.25H616.049L542.549 158.25V217H484.549V159.25L410.549 42.25H476.299L517.549 107.25L558.549 42.25ZM778.779 42H838.779L777.279 217H694.779L633.529 42H693.279L736.029 164L778.779 42ZM950.395 38C997.145 38 1046.39 63.25 1046.39 129.5C1046.39 196 997.145 221.25 950.395 221.25C903.895 221.25 854.645 196 854.645 129.5C854.645 63.25 903.895 38 950.395 38ZM950.395 172.25C968.645 172.25 989.395 162.25 989.395 129.5C989.395 97 968.645 87 950.395 87C932.395 87 911.645 97 911.645 129.5C911.645 162.25 932.395 172.25 950.395 172.25Z" fill="#22D521"/>
</g>
<defs>
<filter id="filter0_f_189_3609" x="0" y="0" width="1084.39" height="259.25" filterUnits="userSpaceOnUse" color-interpolation-filters="sRGB">
<feFlood flood-opacity="0" result="BackgroundImageFix"/>
<feBlend mode="normal" in="SourceGraphic" in2="BackgroundImageFix" result="shape"/>
<feGaussianBlur stdDeviation="0" result="effect1_foregroundBlur_189_3609"/>
</filter>
</defs>
</svg>
