<svg width="52" height="52" viewBox="0 0 52 52" fill="none" xmlns="http://www.w3.org/2000/svg">
<mask id="path-1-inside-1_237_3863" fill="white">
<path d="M0 25.75C0 11.5287 11.5287 0 25.75 0C39.9713 0 51.5 11.5287 51.5 25.75C51.5 39.9713 39.9713 51.5 25.75 51.5C11.5287 51.5 0 39.9713 0 25.75Z"/>
</mask>
<path d="M0 25.75C0 11.5287 11.5287 0 25.75 0C39.9713 0 51.5 11.5287 51.5 25.75C51.5 39.9713 39.9713 51.5 25.75 51.5C11.5287 51.5 0 39.9713 0 25.75Z" fill="#00C942" fill-opacity="0.1"/>
<path d="M25.75 51.5V49.8906C12.4175 49.8906 1.60938 39.0825 1.60938 25.75H0H-1.60938C-1.60938 40.8602 10.6398 53.1094 25.75 53.1094V51.5ZM51.5 25.75H49.8906C49.8906 39.0825 39.0825 49.8906 25.75 49.8906V51.5V53.1094C40.8602 53.1094 53.1094 40.8602 53.1094 25.75H51.5ZM25.75 0V1.60938C39.0825 1.60938 49.8906 12.4175 49.8906 25.75H51.5H53.1094C53.1094 10.6398 40.8602 -1.60938 25.75 -1.60938V0ZM25.75 0V-1.60938C10.6398 -1.60938 -1.60938 10.6398 -1.60938 25.75H0H1.60938C1.60938 12.4175 12.4175 1.60938 25.75 1.60938V0Z" fill="#00C942" fill-opacity="0.3" mask="url(#path-1-inside-1_237_3863)"/>
<path d="M25.75 34.3335H25.7616" stroke="#00C942" stroke-width="2.14583" stroke-linecap="round" stroke-linejoin="round"/>
<path d="M15.0215 22.3379C17.9721 19.6988 21.792 18.2397 25.7507 18.2397C29.7094 18.2397 33.5292 19.6988 36.4798 22.3379" stroke="#00C942" stroke-width="2.14583" stroke-linecap="round" stroke-linejoin="round"/>
<path d="M18.2402 26.6715C20.2458 24.7056 22.9423 23.6045 25.7507 23.6045C28.559 23.6045 31.2555 24.7056 33.2611 26.6715" stroke="#00C942" stroke-width="2.14583" stroke-linecap="round" stroke-linejoin="round"/>
<path d="M21.9941 30.5018C22.9969 29.5188 24.3452 28.9683 25.7493 28.9683C27.1535 28.9683 28.5018 29.5188 29.5046 30.5018" stroke="#00C942" stroke-width="2.14583" stroke-linecap="round" stroke-linejoin="round"/>
</svg>
