<svg width="13" height="13" viewBox="0 0 13 13" fill="none" xmlns="http://www.w3.org/2000/svg">
<g clip-path="url(#clip0_252_706)">
<path d="M6.42679 9.84132C6.55408 9.93679 6.70225 10.0006 6.85907 10.0276C7.01589 10.0546 7.17687 10.0439 7.32876 9.99649C7.48064 9.94904 7.61908 9.86618 7.73266 9.75474C7.84624 9.64329 7.93171 9.50645 7.98203 9.3555C8.03235 9.20454 8.04608 9.04378 8.02208 8.88648C7.99808 8.72918 7.93705 8.57983 7.84401 8.45074C7.75097 8.32165 7.62858 8.21652 7.48694 8.14401C7.3453 8.0715 7.18845 8.03369 7.02933 8.03369H1.00391" stroke="#00C942" stroke-width="1.00424" stroke-linecap="round" stroke-linejoin="round"/>
<path d="M8.78674 4.01677C8.91513 3.84559 9.08514 3.71007 9.28063 3.62308C9.47612 3.53608 9.6906 3.50051 9.90371 3.51972C10.1168 3.53894 10.3215 3.61231 10.4983 3.73287C10.675 3.85343 10.8181 4.01718 10.9137 4.20856C11.0094 4.39994 11.0546 4.61261 11.045 4.82637C11.0354 5.04013 10.9713 5.24788 10.8588 5.42989C10.7463 5.61191 10.5892 5.76215 10.4023 5.86635C10.2154 5.97055 10.005 6.02524 9.79098 6.02524H1.00391" stroke="#00C942" stroke-width="1.00424" stroke-linecap="round" stroke-linejoin="round"/>
<path d="M4.92043 2.20915C5.04773 2.11367 5.19589 2.04982 5.35271 2.02284C5.50953 1.99586 5.67052 2.00653 5.8224 2.05398C5.97429 2.10143 6.11273 2.18428 6.2263 2.29573C6.33988 2.40717 6.42536 2.54401 6.47568 2.69497C6.52599 2.84593 6.53972 3.00668 6.51572 3.16399C6.49173 3.32129 6.43069 3.47064 6.33765 3.59973C6.24461 3.72881 6.12223 3.83394 5.98058 3.90645C5.83894 3.97896 5.6821 4.01677 5.52297 4.01677H1.00391" stroke="#00C942" stroke-width="1.00424" stroke-linecap="round" stroke-linejoin="round"/>
</g>
<defs>
<clipPath id="clip0_252_706">
<rect width="12.0508" height="12.0508" fill="white"/>
</clipPath>
</defs>
</svg>
